<svg width="120" height="120" viewBox="0 0 120 120" fill="none" xmlns="http://www.w3.org/2000/svg">
<path d="M112.282 7.68066H7.3609V112.602H112.282V7.68066Z" fill="#BC85F3"/>
<path d="M103.484 16.4736H16.1541V103.803H103.484V16.4736Z" fill="#252653"/>
<path fill-rule="evenodd" clip-rule="evenodd" d="M49.5437 72.1847L53.1979 84.3406H63.4622L48.886 35.4168C48.8589 35.3282 48.7911 35.2668 48.6488 35.2668L36.5878 35.2327C36.12 35.2327 36.1065 35.4782 36.1471 35.9421C36.2963 37.627 36.2149 38.5684 35.8692 39.8849L22.9472 84.3475L32.6827 84.3338L35.7132 72.1779L49.5437 72.1847ZM47.7945 63.3713H37.8014L42.6488 43.6777L47.7945 63.3713Z" fill="#BC85F3"/>
<path fill-rule="evenodd" clip-rule="evenodd" d="M75.4351 68.2351L94.2756 68.2624C95.4621 66.7344 95.679 63.8625 95.6451 61.9798C95.5163 54.3397 90.4858 47.0271 81.4011 46.9793C66.147 46.8906 63.2589 66.2978 68.4521 77.4919C70.0859 81.0118 73.3673 83.2492 77.2181 84.3134C78.974 84.7977 80.8384 85.0433 82.7232 85.0501C86.452 85.0637 90.2418 84.1565 93.2858 82.4102C93.3333 82.3829 93.4146 82.3829 93.4214 82.3283V82.11L93.4146 75.7865C93.4146 75.5 93.1977 75.3363 92.8723 75.4386C89.0214 76.6051 75.9774 80.3296 75.374 68.5898C75.3673 68.5011 75.3469 68.2351 75.4351 68.2351ZM84.8791 61.8979H75.2859C75.3334 56.7682 77.6723 53.8554 81.2859 53.8417C84.5672 53.8281 86.6553 56.1201 86.757 61.7751C86.757 62.0344 86.757 61.8979 86.757 61.8979H84.8791Z" fill="#BC85F3"/>
</svg>
