<svg width="120" height="120" viewBox="0 0 120 120" fill="none" xmlns="http://www.w3.org/2000/svg">
<path d="M112.282 7.68066H7.3609V112.602H112.282V7.68066Z" fill="#FF7C00"/>
<path d="M103.489 16.4736H16.1541V103.809H103.489V16.4736Z" fill="#261300"/>
<path d="M85.9977 49.7078H77.713C77.4996 49.7078 77.3265 49.8818 77.3265 50.0966V84.32C77.3265 84.5348 77.4996 84.7089 77.713 84.7089H85.9977C86.2111 84.7089 86.3841 84.5348 86.3841 84.32V50.0966C86.3841 49.8818 86.2111 49.7078 85.9977 49.7078Z" fill="#FF7C00"/>
<path d="M81.8554 45.0829C84.5138 45.0829 86.6689 43.0092 86.6689 40.4511C86.6689 37.8931 84.5138 35.8193 81.8554 35.8193C79.197 35.8193 77.0419 37.8931 77.0419 40.4511C77.0419 43.0092 79.197 45.0829 81.8554 45.0829Z" fill="#FF7C00"/>
<path fill-rule="evenodd" clip-rule="evenodd" d="M59.4216 72.4715L62.8182 83.7883C62.9945 84.4568 63.3403 84.6205 63.8081 84.6137H72.5063C73.1775 84.6205 73.225 84.4159 73.1233 83.9657L58.7572 35.7513C58.7301 35.6626 58.6623 35.6012 58.5267 35.6012L46.4793 35.5671C46.0048 35.5671 45.998 35.8127 46.0387 36.2766C46.1878 37.9547 46.1065 38.896 45.7539 40.2126L33.0354 83.993C32.8998 84.4091 32.9337 84.6137 33.476 84.6205L41.6861 84.6137C42.5539 84.5864 42.6014 84.3477 42.7506 83.9111L45.598 72.4715H59.4216ZM57.6657 63.6717H47.6929L52.5268 43.9985L57.6657 63.6717Z" fill="#FF7C00"/>
</svg>
