<svg width="120" height="120" viewBox="0 0 120 120" fill="none" xmlns="http://www.w3.org/2000/svg">
<path d="M83.6568 5.49003H76.7343L83.9334 13.3022V17.0213H69.1059V12.6666H76.304L69.1059 4.8544V1.13159H83.6568V5.49003ZM66.1659 5.49003H59.2434L66.4425 13.3022V17.0213H51.614V12.6666H58.8131L51.614 4.8544V1.13159H66.1659V5.49003ZM48.8465 5.66815H41.3765V12.4847H48.8465V17.0213H36.0665V1.13159H48.8465V5.66815Z" fill="white"/>
<path d="M25.8872 109.412L18.2963 24.2747H101.703L94.1053 109.398L59.9485 118.868L25.8872 109.412Z" fill="#1572B6"/>
<path d="M60.001 111.63L87.6 103.978L94.0932 31.2366H60.001V111.63Z" fill="#33A9DC"/>
<path d="M60 62.0813H73.8169L74.7722 51.3891H60V40.9473H86.1834L85.9331 43.7485L83.3672 72.5223H60V62.0813Z" fill="white"/>
<path d="M60.0628 89.1995L60.0169 89.2126L48.3881 86.0719L47.6438 77.7441H37.1635L38.6269 94.1391L60.015 100.076L60.0638 100.062V89.1995H60.0628Z" fill="#EBEBEB"/>
<path d="M72.93 72.0806L71.6719 86.0643L60.0262 89.2078V100.072L81.4322 94.139L81.5897 92.3746L83.4066 72.0806H72.93Z" fill="white"/>
<path d="M60.0366 40.9473V51.3882H34.815L34.605 49.0416L34.1297 43.7485L33.8794 40.9473H60.0366ZM60 62.0823V72.5241H48.5185L48.3094 70.1776L47.8331 64.8835L47.5828 62.0823H60Z" fill="#EBEBEB"/>
</svg>
