<svg width="120" height="120" viewBox="0 0 120 120" fill="none" xmlns="http://www.w3.org/2000/svg">
<path d="M6.7005 60.0393C6.7005 31.0444 30.2056 7.53931 59.2005 7.53931C88.1954 7.53931 111.701 31.0444 111.701 60.0393C111.701 89.0342 88.1954 112.539 59.2005 112.539C30.2056 112.539 6.7005 89.0342 6.7005 60.0393Z" fill="white"/>
<path d="M47.3907 90.8481C53.009 90.8481 57.5633 86.1506 57.5633 80.3559V69.8638H47.3907C41.7725 69.8638 37.2181 74.5614 37.2181 80.3559C37.2181 86.1506 41.7725 90.8481 47.3907 90.8481Z" fill="#0ACF83"/>
<path d="M37.2181 59.3715C37.2181 53.5768 41.7725 48.8794 47.3907 48.8794H57.5633V69.8637H47.3907C41.7725 69.8637 37.2181 65.166 37.2181 59.3715Z" fill="#A259FF"/>
<path d="M37.2181 38.3875C37.2181 32.5927 41.7725 27.8953 47.3907 27.8953H57.5633V48.8796H47.3907C41.7725 48.8796 37.2181 44.182 37.2181 38.3875Z" fill="#F24E1E"/>
<path d="M57.5635 27.8953H67.7361C73.3543 27.8953 77.9087 32.5927 77.9087 38.3875C77.9087 44.182 73.3543 48.8796 67.7361 48.8796H57.5635V27.8953Z" fill="#FF7262"/>
<path d="M77.9087 59.3715C77.9087 65.166 73.3543 69.8637 67.7361 69.8637C62.1178 69.8637 57.5635 65.166 57.5635 59.3715C57.5635 53.5768 62.1178 48.8794 67.7361 48.8794C73.3543 48.8794 77.9087 53.5768 77.9087 59.3715Z" fill="#1ABCFE"/>
</svg>
