<svg width="51" height="52" viewBox="0 0 51 52" fill="none" xmlns="http://www.w3.org/2000/svg">
<path d="M14.1667 0C6.34383 0 0 6.46822 0 14.4444V37.5556C0 45.5318 6.34383 52 14.1667 52H36.8333C44.6562 52 51 45.5318 51 37.5556V14.4444C51 6.46822 44.6562 0 36.8333 0H14.1667ZM42.5 5.77778C44.064 5.77778 45.3333 7.072 45.3333 8.66667C45.3333 10.2613 44.064 11.5556 42.5 11.5556C40.936 11.5556 39.6667 10.2613 39.6667 8.66667C39.6667 7.072 40.936 5.77778 42.5 5.77778ZM25.5 11.5556C33.3228 11.5556 39.6667 18.0238 39.6667 26C39.6667 33.9762 33.3228 40.4444 25.5 40.4444C17.6772 40.4444 11.3333 33.9762 11.3333 26C11.3333 18.0238 17.6772 11.5556 25.5 11.5556ZM25.5 17.3333C23.2457 17.3333 21.0837 18.2464 19.4896 19.8717C17.8955 21.4971 17 23.7015 17 26C17 28.2985 17.8955 30.5029 19.4896 32.1283C21.0837 33.7536 23.2457 34.6667 25.5 34.6667C27.7543 34.6667 29.9163 33.7536 31.5104 32.1283C33.1045 30.5029 34 28.2985 34 26C34 23.7015 33.1045 21.4971 31.5104 19.8717C29.9163 18.2464 27.7543 17.3333 25.5 17.3333Z" fill="white"/>
</svg>
