<svg width="120" height="120" viewBox="0 0 120 120" fill="none" xmlns="http://www.w3.org/2000/svg">
<path d="M112.282 7.68066H7.36096V112.602H112.282V7.68066Z" fill="#87BCF6"/>
<path d="M103.489 16.4736H16.1542V104.04H103.489V16.4736Z" fill="#252653"/>
<path fill-rule="evenodd" clip-rule="evenodd" d="M85.1504 48.9302C77.381 44.9874 64.0048 46.8974 64.0048 57.1842C64.0048 64.8448 69.2725 67.8599 75.7132 70.3907C84.8657 73.9856 75.9708 80.7798 64.798 73.7537C64.798 73.7537 64.398 73.5558 64.2014 73.7537C64.0048 73.9515 64.0048 74.1493 64.0048 74.354C64.0048 74.5518 64.0048 81.7348 64.0048 81.7348C67.9098 83.7472 70.8251 84.7704 75.3335 84.7226C89.8758 84.5726 91.9707 70.5612 84.2352 65.1722C82.8318 64.1899 79.0759 62.2322 77.8894 61.7751C71.7403 59.4149 72.2623 56.0587 74.2149 54.367C76.3708 52.4911 82.3504 55.3288 84.8657 56.9114C86.3911 57.8596 86.6419 56.6795 86.6351 55.6426L86.6148 50.7379C86.6148 49.5715 86.2148 49.4759 85.1504 48.9302Z" fill="#87BCF6"/>
<path fill-rule="evenodd" clip-rule="evenodd" d="M40.2421 61.1817V43.2139C40.2421 43.1252 40.554 42.8183 40.6354 42.8183C48.2014 42.4294 52.5065 43.9165 52.8929 52.0477C53.3336 61.3796 45.5574 61.5774 40.2421 61.5774V61.1817ZM31.1168 36.2287V84.5317H40.2421V68.9651C51.4556 69.77 61.5708 65.7248 61.5708 52.6821C61.5708 47.4228 59.9437 42.1293 56.0861 38.93C50.6963 34.4551 38.0998 35.451 31.1168 36.2287Z" fill="#87BCF6"/>
</svg>
